<mxfile host="app.diagrams.net" agent="Mozilla/5.0 (Windows NT 10.0; Win64; x64) AppleWebKit/537.36 (KHTML, like Gecko) Chrome/133.0.0.0 Safari/537.36 Edg/133.0.0.0" version="26.1.1">
  <diagram name="Page-1" id="Yay8gkdrrfTUArw_L0t_">
    <mxGraphModel dx="1155" dy="623" grid="1" gridSize="10" guides="1" tooltips="1" connect="1" arrows="1" fold="1" page="1" pageScale="1" pageWidth="850" pageHeight="1400" math="0" shadow="0">
      <root>
        <mxCell id="0" />
        <mxCell id="1" parent="0" />
        <mxCell id="YleI4EzTrmfIdfU0BML3-51" value="" style="rounded=0;whiteSpace=wrap;html=1;fillColor=#fff2cc;strokeColor=#d6b656;" vertex="1" parent="1">
          <mxGeometry x="530" y="230" width="310" height="214" as="geometry" />
        </mxCell>
        <mxCell id="YleI4EzTrmfIdfU0BML3-26" value="" style="rounded=0;whiteSpace=wrap;html=1;fillColor=#d5e8d4;strokeColor=#82b366;" vertex="1" parent="1">
          <mxGeometry x="30" y="226" width="450" height="344" as="geometry" />
        </mxCell>
        <mxCell id="YleI4EzTrmfIdfU0BML3-45" style="edgeStyle=none;rounded=0;orthogonalLoop=1;jettySize=auto;html=1;exitX=0;exitY=0.25;exitDx=0;exitDy=0;" edge="1" parent="1" source="YleI4EzTrmfIdfU0BML3-27" target="YleI4EzTrmfIdfU0BML3-6">
          <mxGeometry relative="1" as="geometry" />
        </mxCell>
        <mxCell id="YleI4EzTrmfIdfU0BML3-27" value="" style="rounded=0;whiteSpace=wrap;html=1;fillColor=#dae8fc;strokeColor=#6c8ebf;" vertex="1" parent="1">
          <mxGeometry x="340" y="241" width="116" height="229" as="geometry" />
        </mxCell>
        <mxCell id="YleI4EzTrmfIdfU0BML3-46" style="edgeStyle=none;rounded=0;orthogonalLoop=1;jettySize=auto;html=1;" edge="1" parent="1" source="YleI4EzTrmfIdfU0BML3-15" target="YleI4EzTrmfIdfU0BML3-6">
          <mxGeometry relative="1" as="geometry" />
        </mxCell>
        <mxCell id="YleI4EzTrmfIdfU0BML3-15" value="" style="rounded=0;whiteSpace=wrap;html=1;fillColor=#f5f5f5;strokeColor=#666666;fontColor=#333333;" vertex="1" parent="1">
          <mxGeometry x="40" y="410" width="270" height="130" as="geometry" />
        </mxCell>
        <mxCell id="YleI4EzTrmfIdfU0BML3-4" value="Nextcloud" style="sketch=0;pointerEvents=1;shadow=0;dashed=0;html=1;strokeColor=none;fillColor=#505050;labelPosition=center;verticalLabelPosition=bottom;verticalAlign=top;outlineConnect=0;align=center;shape=mxgraph.office.servers.virtual_server;" vertex="1" parent="1">
          <mxGeometry x="161" y="440" width="28" height="52" as="geometry" />
        </mxCell>
        <mxCell id="YleI4EzTrmfIdfU0BML3-5" value="Mail Server" style="sketch=0;pointerEvents=1;shadow=0;dashed=0;html=1;strokeColor=none;fillColor=#505050;labelPosition=center;verticalLabelPosition=bottom;verticalAlign=top;outlineConnect=0;align=center;shape=mxgraph.office.servers.virtual_server;" vertex="1" parent="1">
          <mxGeometry x="241" y="440" width="28" height="52" as="geometry" />
        </mxCell>
        <mxCell id="YleI4EzTrmfIdfU0BML3-6" value="Repo Server&lt;div&gt;SVEPE0071&lt;/div&gt;" style="sketch=0;pointerEvents=1;shadow=0;dashed=0;html=1;strokeColor=none;fillColor=#505050;labelPosition=center;verticalLabelPosition=bottom;verticalAlign=top;outlineConnect=0;align=center;shape=mxgraph.office.servers.virtual_server;" vertex="1" parent="1">
          <mxGeometry x="159" y="270" width="28" height="52" as="geometry" />
        </mxCell>
        <mxCell id="YleI4EzTrmfIdfU0BML3-36" style="edgeStyle=none;rounded=0;orthogonalLoop=1;jettySize=auto;html=1;entryX=0;entryY=0.75;entryDx=0;entryDy=0;strokeColor=#FF3333;" edge="1" parent="1" source="YleI4EzTrmfIdfU0BML3-7" target="YleI4EzTrmfIdfU0BML3-17">
          <mxGeometry relative="1" as="geometry" />
        </mxCell>
        <mxCell id="YleI4EzTrmfIdfU0BML3-7" value="Ansible Server&lt;br&gt;SVEPE0078" style="sketch=0;pointerEvents=1;shadow=0;dashed=0;html=1;strokeColor=none;fillColor=#505050;labelPosition=center;verticalLabelPosition=bottom;verticalAlign=top;outlineConnect=0;align=center;shape=mxgraph.office.servers.virtual_server;" vertex="1" parent="1">
          <mxGeometry x="384" y="350" width="28" height="52" as="geometry" />
        </mxCell>
        <mxCell id="YleI4EzTrmfIdfU0BML3-8" value="Updater Server" style="sketch=0;pointerEvents=1;shadow=0;dashed=0;html=1;strokeColor=none;fillColor=#505050;labelPosition=center;verticalLabelPosition=bottom;verticalAlign=top;outlineConnect=0;align=center;shape=mxgraph.office.servers.virtual_server;" vertex="1" parent="1">
          <mxGeometry x="83" y="440" width="28" height="52" as="geometry" />
        </mxCell>
        <mxCell id="YleI4EzTrmfIdfU0BML3-10" value="GitLab Server&lt;br&gt;SVEPE0070" style="sketch=0;pointerEvents=1;shadow=0;dashed=0;html=1;strokeColor=none;fillColor=#505050;labelPosition=center;verticalLabelPosition=bottom;verticalAlign=top;outlineConnect=0;align=center;shape=mxgraph.office.servers.virtual_server;" vertex="1" parent="1">
          <mxGeometry x="384" y="254" width="28" height="52" as="geometry" />
        </mxCell>
        <mxCell id="YleI4EzTrmfIdfU0BML3-13" value="" style="endArrow=none;html=1;rounded=0;" edge="1" parent="1" source="YleI4EzTrmfIdfU0BML3-4" target="YleI4EzTrmfIdfU0BML3-5">
          <mxGeometry width="50" height="50" relative="1" as="geometry">
            <mxPoint x="231" y="430" as="sourcePoint" />
            <mxPoint x="281" y="380" as="targetPoint" />
          </mxGeometry>
        </mxCell>
        <mxCell id="YleI4EzTrmfIdfU0BML3-16" value="" style="endArrow=none;html=1;rounded=0;" edge="1" parent="1">
          <mxGeometry width="50" height="50" relative="1" as="geometry">
            <mxPoint x="109" y="465.66" as="sourcePoint" />
            <mxPoint x="161" y="465.66" as="targetPoint" />
          </mxGeometry>
        </mxCell>
        <mxCell id="YleI4EzTrmfIdfU0BML3-44" style="edgeStyle=none;rounded=0;orthogonalLoop=1;jettySize=auto;html=1;" edge="1" parent="1" source="YleI4EzTrmfIdfU0BML3-17" target="YleI4EzTrmfIdfU0BML3-20">
          <mxGeometry relative="1" as="geometry" />
        </mxCell>
        <mxCell id="YleI4EzTrmfIdfU0BML3-17" value="" style="rounded=0;whiteSpace=wrap;html=1;fillColor=#f5f5f5;strokeColor=#666666;fontColor=#333333;" vertex="1" parent="1">
          <mxGeometry x="556" y="240" width="174" height="184" as="geometry" />
        </mxCell>
        <mxCell id="YleI4EzTrmfIdfU0BML3-18" value="Nextcloud" style="sketch=0;pointerEvents=1;shadow=0;dashed=0;html=1;strokeColor=none;fillColor=#505050;labelPosition=center;verticalLabelPosition=bottom;verticalAlign=top;outlineConnect=0;align=center;shape=mxgraph.office.servers.virtual_server;" vertex="1" parent="1">
          <mxGeometry x="589" y="343" width="28" height="52" as="geometry" />
        </mxCell>
        <mxCell id="YleI4EzTrmfIdfU0BML3-19" value="Mail Server" style="sketch=0;pointerEvents=1;shadow=0;dashed=0;html=1;strokeColor=none;fillColor=#505050;labelPosition=center;verticalLabelPosition=bottom;verticalAlign=top;outlineConnect=0;align=center;shape=mxgraph.office.servers.virtual_server;" vertex="1" parent="1">
          <mxGeometry x="666" y="343" width="28" height="52" as="geometry" />
        </mxCell>
        <mxCell id="YleI4EzTrmfIdfU0BML3-20" value="Repo Server" style="sketch=0;pointerEvents=1;shadow=0;dashed=0;html=1;strokeColor=none;fillColor=#505050;labelPosition=center;verticalLabelPosition=bottom;verticalAlign=top;outlineConnect=0;align=center;shape=mxgraph.office.servers.virtual_server;" vertex="1" parent="1">
          <mxGeometry x="790" y="306" width="28" height="52" as="geometry" />
        </mxCell>
        <mxCell id="YleI4EzTrmfIdfU0BML3-22" value="Updater Server" style="sketch=0;pointerEvents=1;shadow=0;dashed=0;html=1;strokeColor=none;fillColor=#505050;labelPosition=center;verticalLabelPosition=bottom;verticalAlign=top;outlineConnect=0;align=center;shape=mxgraph.office.servers.virtual_server;" vertex="1" parent="1">
          <mxGeometry x="622" y="254" width="28" height="52" as="geometry" />
        </mxCell>
        <mxCell id="YleI4EzTrmfIdfU0BML3-24" value="" style="endArrow=none;html=1;rounded=0;" edge="1" source="YleI4EzTrmfIdfU0BML3-18" target="YleI4EzTrmfIdfU0BML3-19" parent="1">
          <mxGeometry width="50" height="50" relative="1" as="geometry">
            <mxPoint x="695" y="294" as="sourcePoint" />
            <mxPoint x="745" y="244" as="targetPoint" />
          </mxGeometry>
        </mxCell>
        <mxCell id="YleI4EzTrmfIdfU0BML3-30" value="&lt;b&gt;Batam&lt;/b&gt;" style="text;html=1;align=center;verticalAlign=middle;whiteSpace=wrap;rounded=0;" vertex="1" parent="1">
          <mxGeometry x="187" y="190" width="60" height="30" as="geometry" />
        </mxCell>
        <mxCell id="YleI4EzTrmfIdfU0BML3-31" value="&lt;b&gt;New Location&lt;/b&gt;" style="text;html=1;align=center;verticalAlign=middle;whiteSpace=wrap;rounded=0;" vertex="1" parent="1">
          <mxGeometry x="581" y="180" width="110" height="30" as="geometry" />
        </mxCell>
        <mxCell id="YleI4EzTrmfIdfU0BML3-34" style="edgeStyle=none;rounded=0;orthogonalLoop=1;jettySize=auto;html=1;strokeColor=#00FF00;" edge="1" parent="1" source="YleI4EzTrmfIdfU0BML3-10" target="YleI4EzTrmfIdfU0BML3-22">
          <mxGeometry relative="1" as="geometry" />
        </mxCell>
        <mxCell id="YleI4EzTrmfIdfU0BML3-47" style="edgeStyle=none;rounded=0;orthogonalLoop=1;jettySize=auto;html=1;entryX=1;entryY=0.25;entryDx=0;entryDy=0;strokeColor=#FF3333;" edge="1" parent="1" source="YleI4EzTrmfIdfU0BML3-7" target="YleI4EzTrmfIdfU0BML3-15">
          <mxGeometry relative="1" as="geometry" />
        </mxCell>
        <mxCell id="YleI4EzTrmfIdfU0BML3-49" style="edgeStyle=none;rounded=0;orthogonalLoop=1;jettySize=auto;html=1;strokeColor=#00FF00;" edge="1" parent="1" source="YleI4EzTrmfIdfU0BML3-10" target="YleI4EzTrmfIdfU0BML3-8">
          <mxGeometry relative="1" as="geometry">
            <mxPoint x="-90" y="370.24" as="sourcePoint" />
            <mxPoint x="146" y="416.24" as="targetPoint" />
          </mxGeometry>
        </mxCell>
      </root>
    </mxGraphModel>
  </diagram>
</mxfile>
